<svg width="20" height="20" viewBox="0 0 20 20" fill="none" xmlns="http://www.w3.org/2000/svg">
<path d="M8.49325 16.6294C8.49325 16.8678 8.42256 17.1009 8.29011 17.2991C8.15767 17.4973 7.96941 17.6518 7.74916 17.7431C7.52891 17.8343 7.28656 17.8582 7.05274 17.8116C6.81892 17.7651 6.60415 17.6503 6.43558 17.4818C6.26701 17.3132 6.15221 17.0984 6.1057 16.8646C6.05919 16.6308 6.08306 16.3884 6.17429 16.1682C6.26552 15.9479 6.42001 15.7597 6.61823 15.6272C6.81645 15.4948 7.0495 15.4241 7.28789 15.4241C7.60757 15.4241 7.91416 15.5511 8.14021 15.7771C8.36626 16.0032 8.49325 16.3098 8.49325 16.6294ZM15.1227 15.4241C14.8843 15.4241 14.6513 15.4948 14.4531 15.6272C14.2548 15.7597 14.1003 15.9479 14.0091 16.1682C13.9179 16.3884 13.894 16.6308 13.9405 16.8646C13.987 17.0984 14.1018 17.3132 14.2704 17.4818C14.439 17.6503 14.6537 17.7651 14.8876 17.8116C15.1214 17.8582 15.3637 17.8343 15.584 17.7431C15.8042 17.6518 15.9925 17.4973 16.1249 17.2991C16.2574 17.1009 16.3281 16.8678 16.3281 16.6294C16.3281 16.3098 16.2011 16.0032 15.975 15.7771C15.749 15.5511 15.4424 15.4241 15.1227 15.4241ZM18.7124 5.95827L16.5631 12.9426C16.4505 13.3128 16.2216 13.6369 15.9103 13.8668C15.599 14.0967 15.2219 14.2201 14.8349 14.2187H7.59451C7.20199 14.2173 6.82052 14.0887 6.50721 13.8522C6.19389 13.6158 5.96561 13.2842 5.85653 12.9072L3.13092 3.37052H1.86379C1.70395 3.37052 1.55065 3.30702 1.43763 3.194C1.3246 3.08097 1.26111 2.92768 1.26111 2.76784C1.26111 2.608 1.3246 2.45471 1.43763 2.34168C1.55065 2.22866 1.70395 2.16516 1.86379 2.16516H3.13092C3.39264 2.16603 3.64704 2.25164 3.85604 2.40917C4.06504 2.5667 4.21741 2.78769 4.29032 3.03904L4.90129 5.17855H18.1361C18.2304 5.17852 18.3234 5.20062 18.4076 5.24308C18.4919 5.28553 18.5649 5.34716 18.621 5.42301C18.677 5.49885 18.7145 5.58679 18.7304 5.67976C18.7463 5.77272 18.7401 5.86812 18.7124 5.95827ZM17.3202 6.38391H5.24557L7.01518 12.5764C7.05118 12.7023 7.12719 12.813 7.23172 12.8919C7.33624 12.9707 7.46359 13.0133 7.59451 13.0134H14.8349C14.9639 13.0134 15.0895 12.9721 15.1932 12.8955C15.2969 12.8189 15.3734 12.711 15.4112 12.5877L17.3202 6.38391Z" fill="white"/>
</svg>
