<svg width="32" height="32" viewBox="0 0 32 32" fill="none" xmlns="http://www.w3.org/2000/svg">
<path d="M9.41994 25.4C9.41796 25.8771 9.55762 26.344 9.82123 26.7416C10.0848 27.1393 10.4605 27.4497 10.9007 27.6337C11.3409 27.8176 11.8258 27.8668 12.294 27.7749C12.7621 27.683 13.1925 27.4543 13.5305 27.1177C13.8685 26.781 14.0991 26.3516 14.1929 25.8839C14.2867 25.4161 14.2395 24.931 14.0574 24.4901C13.8753 24.0491 13.5664 23.6721 13.1699 23.4069C12.7734 23.1416 12.307 23 11.8299 23C11.1925 23 10.581 23.2525 10.1293 23.7023C9.67766 24.1521 9.42259 24.7626 9.41994 25.4Z" fill="white"/>
<path d="M20.7998 25.4C20.7978 25.8771 20.9375 26.344 21.2011 26.7416C21.4647 27.1393 21.8404 27.4497 22.2806 27.6337C22.7208 27.8176 23.2057 27.8668 23.6738 27.7749C24.142 27.683 24.5723 27.4543 24.9104 27.1177C25.2484 26.781 25.479 26.3516 25.5728 25.8839C25.6666 25.4161 25.6194 24.931 25.4373 24.4901C25.2552 24.0491 24.9463 23.6721 24.5498 23.4069C24.1532 23.1416 23.6869 23 23.2098 23C22.5724 23 21.9609 23.2525 21.5092 23.7023C21.0575 24.1521 20.8025 24.7626 20.7998 25.4Z" fill="white"/>
<path d="M29.3002 7.82001C29.1663 7.63167 28.9894 7.47805 28.7841 7.37194C28.5789 7.26584 28.3512 7.21032 28.1202 7.21001H10.2302L9.67018 4.86001C9.59752 4.54353 9.41931 4.2612 9.16486 4.05946C8.91042 3.85773 8.59489 3.74859 8.27018 3.75001H3.12018C2.73826 3.75001 2.37199 3.90173 2.10194 4.17178C1.83189 4.44183 1.68018 4.8081 1.68018 5.19001C1.68018 5.57193 1.83189 5.9382 2.10194 6.20825C2.37199 6.4783 2.73826 6.63001 3.12018 6.63001H7.12018L7.68018 9.00001L10.0002 19C10.0746 19.3183 10.2543 19.6021 10.5103 19.8054C10.7662 20.0087 11.0833 20.1196 11.4102 20.12H24.5602C24.8625 20.1147 25.1557 20.0156 25.3993 19.8365C25.643 19.6574 25.825 19.407 25.9202 19.12L29.4802 9.12001C29.5545 8.90443 29.5769 8.67436 29.5457 8.44848C29.5144 8.2226 29.4303 8.00729 29.3002 7.82001Z" fill="white"/>
</svg>
