<svg width="14" height="15" viewBox="0 0 14 15" xmlns="http://www.w3.org/2000/svg">
<path d="M12.824 6.75517L10.3576 8.90767L11.0965 12.1124C11.1356 12.2799 11.1244 12.4552 11.0644 12.6165C11.0044 12.7777 10.8982 12.9176 10.759 13.0188C10.6199 13.12 10.454 13.178 10.2822 13.1854C10.1103 13.1928 9.94005 13.1494 9.79271 13.0606L6.99763 11.3653L4.20857 13.0606C4.06122 13.1494 3.89097 13.1928 3.7191 13.1854C3.54723 13.178 3.38136 13.12 3.24224 13.0188C3.10311 12.9176 2.9969 12.7777 2.93689 12.6165C2.87688 12.4552 2.86572 12.2799 2.90482 12.1124L3.64255 8.91095L1.1756 6.75517C1.04512 6.64264 0.950768 6.49408 0.904379 6.32814C0.857989 6.1622 0.861626 5.98625 0.914833 5.82237C0.968039 5.65849 1.06845 5.51396 1.20347 5.40691C1.33848 5.29987 1.5021 5.23507 1.6738 5.22064L4.92552 4.939L6.19482 1.9115C6.2611 1.75264 6.37291 1.61694 6.51615 1.5215C6.6594 1.42605 6.82768 1.37512 6.99982 1.37512C7.17195 1.37512 7.34023 1.42605 7.48348 1.5215C7.62673 1.61694 7.73853 1.75264 7.80482 1.9115L9.07794 4.939L12.3286 5.22064C12.5003 5.23507 12.6639 5.29987 12.7989 5.40691C12.9339 5.51396 13.0343 5.65849 13.0875 5.82237C13.1407 5.98625 13.1444 6.1622 13.098 6.32814C13.0516 6.49408 12.9573 6.64264 12.8268 6.75517H12.824Z" />
</svg>
