<svg width="306" height="56" viewBox="0 0 306 56" fill="none" xmlns="http://www.w3.org/2000/svg">
<path d="M217.328 43.08H204.888C203.528 43.08 202.474 42.8 201.728 42.24C201.008 41.6533 200.648 40.84 200.648 39.8C200.648 38.76 201.088 37.6667 201.968 36.52L211.488 24.72H201.968V20.24H217.728V24.2L206.368 38.6H217.328V43.08Z" fill="white"/>
<path d="M200.184 43.08H193.944L187.944 35L185.664 38.24V43.08H180.464V13H185.664V32L192.944 21.16H198.824L191.344 31.4L200.184 43.08Z" fill="white"/>
<path d="M174.227 37.72C174.654 38.12 174.867 38.9866 174.867 40.32C174.867 41.6533 174.654 42.5333 174.227 42.96C173.827 43.3866 172.961 43.6 171.627 43.6C170.294 43.6 169.414 43.3866 168.987 42.96C168.561 42.5333 168.347 41.6533 168.347 40.32C168.347 38.9866 168.561 38.12 168.987 37.72C169.414 37.2933 170.294 37.08 171.627 37.08C172.961 37.08 173.827 37.2933 174.227 37.72Z" fill="white"/>
<path d="M164.445 43.0799H161.205C159.231 43.0799 157.725 42.4933 156.685 41.3199C155.671 40.1466 155.165 38.7466 155.165 37.1199V25.1199H152.965V21.1599H155.165V16.6799H160.365V21.1599H164.045V25.1199H160.365V36.7999C160.365 38.0533 160.965 38.6799 162.165 38.6799H164.445V43.0799Z" fill="white"/>
<path d="M150.326 36.7599V37.3599C150.166 39.3599 149.312 40.8666 147.766 41.8799C146.246 42.8933 144.339 43.3999 142.046 43.3999C138.659 43.3999 136.286 42.7866 134.926 41.5599C133.672 40.4399 133.046 38.7866 133.046 36.5999V36.1199H137.766C137.766 37.3466 138.086 38.1866 138.726 38.6399C139.366 39.0933 140.472 39.3199 142.046 39.3199C144.179 39.3199 145.246 38.5466 145.246 36.9999C145.246 35.7199 144.872 34.8666 144.126 34.4399C143.779 34.2266 143.339 34.0666 142.806 33.9599L138.766 33.2799C135.246 32.7199 133.486 30.5199 133.486 26.6799C133.486 24.5466 134.259 22.8933 135.806 21.7199C137.379 20.5199 139.366 19.9199 141.766 19.9199C147.232 19.9199 149.966 22.2799 149.966 26.9999V27.5199H145.446C145.392 26.2666 145.059 25.4133 144.446 24.9599C143.832 24.5066 142.966 24.2799 141.846 24.2799C140.752 24.2799 139.926 24.5066 139.366 24.9599C138.806 25.3866 138.526 25.8666 138.526 26.3999C138.526 27.9199 139.139 28.7866 140.366 28.9999L145.206 29.8799C148.619 30.5199 150.326 32.8133 150.326 36.7599Z" fill="white"/>
<path d="M129.852 32.88H116.532C116.532 34.96 116.852 36.48 117.492 37.44C118.158 38.4 119.478 38.88 121.452 38.88C122.732 38.88 123.678 38.48 124.292 37.68C124.905 36.8533 125.212 36.0666 125.212 35.32H129.892C129.892 38.1733 129.118 40.2666 127.572 41.6C126.052 42.9333 124.025 43.6 121.492 43.6C118.985 43.6 117.038 43.24 115.652 42.52C112.798 41.0533 111.372 37.16 111.372 30.84C111.372 27.08 112.185 24.3333 113.812 22.6C115.438 20.84 117.918 19.96 121.252 19.96C127.038 19.96 129.932 23.1733 129.932 29.6C129.932 30.2933 129.905 31.3866 129.852 32.88ZM116.652 29.32H125.212C125.212 27.56 124.878 26.28 124.212 25.48C123.545 24.68 122.518 24.28 121.132 24.28C119.772 24.28 118.678 24.6933 117.852 25.52C117.052 26.32 116.652 27.5866 116.652 29.32Z" fill="white"/>
<path d="M108.8 19.56H101.16V43.08H95.6V19.56H88V14.6H108.8V19.56Z" fill="white"/>
</svg>
